<svg class="main-svg" xmlns="http://www.w3.org/2000/svg" xmlns:xlink="http://www.w3.org/1999/xlink" width="900" height="500" style="" viewBox="0 0 900 500"><rect x="0" y="0" width="900" height="500" style="fill: rgb(255, 255, 255); fill-opacity: 1;"/><defs id="defs-f41d6b"><g class="clips"><clipPath id="clipf41d6bxyplot" class="plotclip"><rect width="674" height="320"/></clipPath><clipPath class="axesclip" id="clipf41d6bx"><rect x="80" y="0" width="674" height="500"/></clipPath><clipPath class="axesclip" id="clipf41d6by"><rect x="0" y="100" width="900" height="320"/></clipPath><clipPath class="axesclip" id="clipf41d6bxy"><rect x="80" y="100" width="674" height="320"/></clipPath></g><g class="gradients"/><g class="patterns"/></defs><g class="bglayer"/><g class="layer-below"><g class="imagelayer"/><g class="shapelayer"/></g><g class="cartesianlayer"><g class="subplot xy"><g class="layer-subplot"><g class="shapelayer"/><g class="imagelayer"/></g><g class="minor-gridlayer"><g class="x"/><g class="y"/></g><g class="gridlayer"><g class="x"><path class="xgrid crisp" transform="translate(136.96,0)" d="M0,100v320" style="stroke: rgb(235, 240, 248); stroke-opacity: 1; stroke-width: 1px;"/><path class="xgrid crisp" transform="translate(231.89,0)" d="M0,100v320" style="stroke: rgb(235, 240, 248); stroke-opacity: 1; stroke-width: 1px;"/><path class="xgrid crisp" transform="translate(326.82,0)" d="M0,100v320" style="stroke: rgb(235, 240, 248); stroke-opacity: 1; stroke-width: 1px;"/><path class="xgrid crisp" transform="translate(516.6800000000001,0)" d="M0,100v320" style="stroke: rgb(235, 240, 248); stroke-opacity: 1; stroke-width: 1px;"/><path class="xgrid crisp" transform="translate(611.61,0)" d="M0,100v320" style="stroke: rgb(235, 240, 248); stroke-opacity: 1; stroke-width: 1px;"/><path class="xgrid crisp" transform="translate(706.54,0)" d="M0,100v320" style="stroke: rgb(235, 240, 248); stroke-opacity: 1; stroke-width: 1px;"/></g><g class="y"><path class="ygrid crisp" transform="translate(0,376.21)" d="M80,0h674" style="stroke: rgb(235, 240, 248); stroke-opacity: 1; stroke-width: 1px;"/><path class="ygrid crisp" transform="translate(0,330.09000000000003)" d="M80,0h674" style="stroke: rgb(235, 240, 248); stroke-opacity: 1; stroke-width: 1px;"/><path class="ygrid crisp" transform="translate(0,283.97)" d="M80,0h674" style="stroke: rgb(235, 240, 248); stroke-opacity: 1; stroke-width: 1px;"/><path class="ygrid crisp" transform="translate(0,237.86)" d="M80,0h674" style="stroke: rgb(235, 240, 248); stroke-opacity: 1; stroke-width: 1px;"/><path class="ygrid crisp" transform="translate(0,191.74)" d="M80,0h674" style="stroke: rgb(235, 240, 248); stroke-opacity: 1; stroke-width: 1px;"/><path class="ygrid crisp" transform="translate(0,145.63)" d="M80,0h674" style="stroke: rgb(235, 240, 248); stroke-opacity: 1; stroke-width: 1px;"/></g></g><g class="zerolinelayer"><path class="xzl zl crisp" transform="translate(421.75,0)" d="M0,100v320" style="stroke: rgb(235, 240, 248); stroke-opacity: 1; stroke-width: 2px;"/></g><g class="layer-between"><g class="shapelayer"/><g class="imagelayer"/></g><path class="xlines-below"/><path class="ylines-below"/><g class="overlines-below"/><g class="xaxislayer-below"/><g class="yaxislayer-below"/><g class="overaxes-below"/><g class="overplot"><g class="xy" transform="translate(80,100)" clip-path="url(#clipf41d6bxyplot)"><g class="scatterlayer mlayer"><g class="trace scatter trace32f034" style="stroke-miterlimit: 2; opacity: 1;"><g class="fills"/><g class="errorbars"/><g class="lines"><path class="js-line" d="M0,283.63L9.49,282.6L18.99,279.68L37.97,260.33L47.46,247.77L56.96,233.67L66.45,228L75.94,225.65L85.44,220.4L94.93,215L104.42,201.4L113.92,188.7L123.41,165.85L132.9,168.34L142.39,167.77L151.89,204.06L161.38,212.46L170.87,183.52L180.37,187.9L189.86,183.45L199.35,163.95L208.85,174.76L218.34,197.84L227.83,191.87L237.32,204.34L246.82,208.38L256.31,215.53L265.8,223.64L275.3,225.51L294.28,246.98L303.77,257.03L313.27,270.97L322.76,286.28L332.25,281.24L341.75,288.52L351.24,278.37L360.73,273.11L370.23,271.62L379.72,265.95L389.21,239.37L398.7,231.54L408.2,219.88L417.69,218.86L427.18,210.39L436.68,198.01L446.17,187.34L455.66,184.89L465.15,176.88L474.65,183L484.14,162.07L493.63,188L503.13,181.94L512.62,173.77L522.11,174.3L531.61,184.11L541.1,175.23L550.59,167.58L560.08,179.74L569.58,182.12L598.06,218.81L607.55,215.75L617.04,224.72L626.54,201.66L636.03,239.56L645.52,253.25L655.01,274.27L664.51,291.08L674,283.28" style="vector-effect: none; fill: none; stroke: rgb(47, 79, 79); stroke-opacity: 1; stroke-width: 2px; opacity: 1;"/></g><g class="points"/><g class="text"/></g><g class="trace scatter trace07da1b" style="stroke-miterlimit: 2; opacity: 1;"><g class="fills"/><g class="errorbars"/><g class="lines"><path class="js-line" d="M0,244.85L9.49,252.29L18.99,250.96L28.48,253.02L37.97,250.34L47.46,237.43L56.96,216.05L66.45,196.47L75.94,199.15L85.44,188.82L94.93,120.02L104.42,160.83L113.92,139.53L123.41,140.86L132.9,122.53L142.39,130.47L151.89,115.58L161.38,121.95L170.87,114.73L180.37,117.4L189.86,112.18L199.35,120.51L208.85,133.38L218.34,143.96L227.83,149.64L237.32,167.02L246.82,180.9L256.31,201.73L265.8,134.6L275.3,261.93L284.79,238.97L294.28,245.33L303.77,245.05L313.27,256.15L322.76,270.74L332.25,259.01L341.75,249.86L351.24,256.1L360.73,255.79L370.23,256.6L379.72,175.16L389.21,234.06L398.7,205.48L408.2,191.54L417.69,184.31L427.18,193.36L436.68,157.63L446.17,147.26L455.66,150.37L465.15,138.15L474.65,85.88L484.14,122.26L493.63,102.53L503.13,133.71L512.62,111.12L522.11,111.7L531.61,114.51L541.1,125.29L550.59,126.56L560.08,145.59L569.58,149.46L579.07,167.88L588.56,177.1L598.06,227.69L617.04,229.83L626.54,130.02L636.03,258.3L645.52,244.19L655.01,259.6L664.51,248.18L674,262.61" style="vector-effect: none; fill: none; stroke: rgb(0, 128, 0); stroke-opacity: 1; stroke-width: 2px; opacity: 1;"/></g><g class="points"/><g class="text"/></g><g class="trace scatter tracedd7a25" style="stroke-miterlimit: 2; opacity: 1;"><g class="fills"/><g class="errorbars"/><g class="lines"><path class="js-line" d="M0,299.2L9.49,297.4L18.99,286.41L28.48,288.76L37.97,282.2L47.46,277.54L56.96,270.84L66.45,270.38L75.94,268.09L85.44,272.05L94.93,268.35L113.92,240.2L123.41,245.15L132.9,247.73L142.39,240.09L161.38,248.38L170.87,239.91L180.37,238.07L189.86,243.31L199.35,243.35L208.85,239.37L218.34,254.75L227.83,242.93L237.32,247.37L246.82,264.19L256.31,271.62L265.8,268.33L275.3,269.88L284.79,276.8L294.28,274.39L303.77,282.72L313.27,288.57L322.76,298.69L332.25,294.09L341.75,304L351.24,291.32L360.73,288.22L379.72,276.98L389.21,274.46L398.7,267.11L408.2,271.59L417.69,260.43L427.18,262.97L436.68,252.3L446.17,251.11L455.66,240L465.15,236.44L474.65,232.48L484.14,247.84L493.63,236.5L503.13,238.54L512.62,247.32L522.11,235.12L531.61,244.85L541.1,237.22L550.59,241.18L560.08,232.88L569.58,242.34L579.07,238.26L588.56,252.98L598.06,270.57L607.55,264.67L617.04,266.8L626.54,270.74L636.03,276.37L645.52,274.77L655.01,280.63L664.51,287.53L674,296.31" style="vector-effect: none; fill: none; stroke: rgb(112, 128, 144); stroke-opacity: 1; stroke-width: 2px; opacity: 1;"/></g><g class="points"/><g class="text"/></g><g class="trace scatter trace59a0a0" style="stroke-miterlimit: 2; opacity: 1;"><g class="fills"/><g class="errorbars"/><g class="lines"><path class="js-line" d="M0,251.81L9.49,253.8L18.99,224.89L28.48,248.31L37.97,240.72L47.46,213.59L56.96,200.29L66.45,128.5L75.94,119.32L85.44,116.3L94.93,108.34L104.42,91.93L113.92,61.93L123.41,53.15L132.9,37.12L151.89,38.24L161.38,45.38L170.87,38.89L180.37,40.75L189.86,54.27L199.35,41.81L208.85,41.28L218.34,61.93L227.83,65.89L237.32,74.35L246.82,98.43L256.31,117.05L265.8,167.29L275.3,135.2L284.79,154.04L294.28,185.53L303.77,244.09L313.27,252.75L322.76,217.5L332.25,252.74L341.75,223.61L351.24,251.81L360.73,243.3L370.23,252.02L379.72,210.58L389.21,201.16L398.7,186.8L408.2,119.87L427.18,108.01L436.68,100.76L446.17,62.04L455.66,111.5L465.15,42.63L474.65,33.64L484.14,31.51L493.63,23.16L503.13,32.35L512.62,30.11L522.11,26.63L531.61,26.83L541.1,22.24L550.59,34.74L560.08,38.83L569.58,44.32L579.07,57.32L588.56,93.55L598.06,116.75L607.55,116.22L617.04,125.43L626.54,159.83L636.03,186.19L645.52,178.15L655.01,228.02L664.51,245.15L674,251.68" style="vector-effect: none; fill: none; stroke: rgb(139, 69, 19); stroke-opacity: 1; stroke-width: 2px; opacity: 1;"/></g><g class="points"/><g class="text"/></g><g class="trace scatter trace4fbb6e" style="stroke-miterlimit: 2; opacity: 1;"><g class="fills"/><g class="errorbars"/><g class="lines"><path class="js-line" d="M0,270.09L9.49,268.55L11.39,268.06L20.88,264.74L22.78,263.9L34.17,257.8L36.07,256.61L47.46,248.58L49.36,247.11L64.55,234.27L66.45,232.56L112.02,191.66L113.92,190.19L127.21,180.97L129.1,179.83L140.5,174.03L142.39,173.25L151.89,170.22L153.79,169.79L163.28,168.56L165.18,168.49L174.67,169.11L176.57,169.42L186.06,171.87L187.96,172.53L197.45,176.7L199.35,177.69L210.74,184.67L212.64,185.99L225.93,196.28L227.83,197.87L248.72,216.72L250.61,218.5L279.09,244.06L280.99,245.6L294.28,255.38L296.18,256.61L307.57,263.02L309.47,263.9L318.96,267.51L320.86,268.06L330.35,269.91L332.25,270.09L341.75,270.09L343.65,269.91L353.14,268.06L355.04,267.51L364.53,263.9L366.43,263.02L377.82,256.61L379.72,255.38L393.01,245.6L394.91,244.06L411.99,229.1L413.89,227.35L449.97,194.71L451.86,193.17L465.15,183.39L467.05,182.16L478.45,175.76L480.34,174.87L489.84,171.26L491.74,170.71L501.23,168.86L503.13,168.68L512.62,168.68L514.52,168.86L524.01,170.71L525.91,171.26L535.4,174.87L537.3,175.76L548.69,182.16L550.59,183.39L563.88,193.17L565.78,194.71L582.87,209.67L584.77,211.42L620.84,244.06L622.74,245.6L636.03,255.38L637.93,256.61L649.32,263.02L651.22,263.9L660.71,267.51L662.61,268.06L672.1,269.91L674,270.09" style="vector-effect: none; fill: none; stroke: rgb(255, 0, 0); stroke-opacity: 1; stroke-dasharray: 3px, 3px; stroke-width: 3px; opacity: 1;"/></g><g class="points"/><g class="text"/></g><g class="trace scatter trace6a1613" style="stroke-miterlimit: 2; opacity: 1;"><g class="fills"/><g class="errorbars"/><g class="lines"><path class="js-line" d="M0,256.5L7.59,254.88L9.49,254.25L17.09,250.9L18.99,249.85L28.48,243.43L30.38,241.92L39.87,233.34L41.77,231.44L55.06,216.59L56.96,214.29L74.05,192.22L75.94,189.67L106.32,150L108.22,147.74L121.51,133.3L123.41,131.46L132.9,123.26L134.8,121.83L144.29,115.85L146.19,114.9L153.79,111.92L155.68,111.4L163.28,110.17L165.18,110.08L172.77,110.64L174.67,111L182.26,113.32L184.16,114.12L193.66,119.34L195.55,120.62L205.05,128.15L206.95,129.87L218.34,141.46L220.24,143.58L235.43,162.1L237.32,164.56L280.99,221.31L282.89,223.48L294.28,235.38L296.18,237.16L305.67,245.02L307.57,246.37L317.06,251.96L318.96,252.83L326.56,255.47L328.46,255.91L336.05,256.79L337.95,256.79L345.54,255.88L347.44,255.43L355.04,252.77L356.94,251.9L366.43,246.28L368.33,244.92L377.82,237.04L379.72,235.25L391.11,223.33L393.01,221.16L408.2,202.35L410.1,199.87L449.97,147.82L451.86,145.6L465.15,131.52L467.05,129.75L476.55,121.88L478.45,120.53L487.94,114.93L489.84,114.06L497.43,111.41L499.33,110.97L506.92,110.09L508.82,110.09L516.42,110.99L518.32,111.43L525.91,114.09L527.81,114.96L537.3,120.57L539.2,121.93L548.69,129.81L550.59,131.59L561.98,143.51L563.88,145.68L579.07,164.48L580.97,166.96L622.74,221.23L624.64,223.4L636.03,235.32L637.93,237.1L647.42,244.97L649.32,246.32L658.81,251.93L660.71,252.8L668.3,255.45L670.2,255.9L674,256.52" style="vector-effect: none; fill: none; stroke: rgb(255, 0, 0); stroke-opacity: 1; stroke-dasharray: 3px, 3px; stroke-width: 3px; opacity: 1;"/></g><g class="points"/><g class="text"/></g><g class="trace scatter tracec07583" style="stroke-miterlimit: 2; opacity: 1;"><g class="fills"/><g class="errorbars"/><g class="lines"><path class="js-line" d="M0,289.18L13.29,287.83L15.19,287.51L28.48,284.47L30.38,283.93L45.57,278.7L47.46,277.95L68.35,268.68L70.25,267.77L113.92,247.46L115.81,246.71L131,241.47L132.9,240.93L146.19,237.89L148.09,237.57L161.38,236.22L163.28,236.16L176.57,236.61L178.47,236.8L191.76,239.02L193.66,239.46L208.85,243.91L210.74,244.57L227.83,251.47L229.73,252.32L260.11,266.86L262.01,267.77L284.79,277.95L286.69,278.7L303.77,284.47L305.67,284.99L318.96,287.83L320.86,288.12L334.15,289.24L336.05,289.28L349.34,288.6L351.24,288.37L364.53,285.95L366.43,285.48L381.62,280.83L383.52,280.14L402.5,272.23L404.4,271.35L459.46,245.97L461.36,245.26L476.55,240.41L478.45,239.92L491.74,237.28L493.63,237.03L506.92,236.13L508.82,236.13L522.11,237.03L524.01,237.28L537.3,239.92L539.2,240.41L554.39,245.26L556.29,245.97L575.27,254.05L577.17,254.93L630.33,279.43L632.23,280.14L647.42,284.99L649.32,285.48L662.61,288.12L664.51,288.37L674,289.18" style="vector-effect: none; fill: none; stroke: rgb(255, 0, 0); stroke-opacity: 1; stroke-dasharray: 3px, 3px; stroke-width: 3px; opacity: 1;"/></g><g class="points"/><g class="text"/></g><g class="trace scatter traceba4de7" style="stroke-miterlimit: 2; opacity: 1;"><g class="fills"/><g class="errorbars"/><g class="lines"><path class="js-line" d="M0,234.86L5.7,233.26L7.59,232.46L15.19,227.99L17.09,226.56L24.68,219.61L26.58,217.58L36.07,205.82L37.97,203.16L47.46,188.52L49.36,185.34L62.65,161.32L64.55,157.69L110.12,69.16L112.02,65.91L123.41,48.1L125.31,45.44L134.8,33.67L136.7,31.64L144.29,24.7L146.19,23.27L153.79,18.79L155.68,18L161.38,16.4L163.28,16.13L168.97,16.13L170.87,16.4L176.57,18L178.47,18.79L186.06,23.27L187.96,24.7L195.55,31.64L197.45,33.67L206.95,45.44L208.85,48.1L220.24,65.91L222.14,69.16L237.32,97.25L239.22,100.96L279.09,178.78L280.99,182.1L292.38,200.41L294.28,203.16L303.77,215.44L305.67,217.58L313.27,225L315.17,226.56L322.76,231.54L324.66,232.46L332.25,234.86L334.15,235.12L339.85,235.12L341.75,234.86L347.44,233.26L349.34,232.46L356.94,227.99L358.83,226.56L366.43,219.61L368.33,217.58L377.82,205.82L379.72,203.16L389.21,188.52L391.11,185.34L404.4,161.32L406.3,157.69L451.86,69.16L453.76,65.91L465.15,48.1L467.05,45.44L476.55,33.67L478.45,31.64L486.04,24.7L487.94,23.27L495.53,18.79L497.43,18L503.13,16.4L505.03,16.13L510.72,16.13L512.62,16.4L518.32,18L520.21,18.79L527.81,23.27L529.71,24.7L537.3,31.64L539.2,33.67L548.69,45.44L550.59,48.1L560.08,62.74L561.98,65.91L575.27,89.93L577.17,93.57L622.74,182.1L624.64,185.34L636.03,203.16L637.93,205.82L647.42,217.58L649.32,219.61L656.91,226.56L658.81,227.99L666.41,232.46L668.3,233.26L674,234.86" style="vector-effect: none; fill: none; stroke: rgb(255, 0, 0); stroke-opacity: 1; stroke-dasharray: 3px, 3px; stroke-width: 3px; opacity: 1;"/></g><g class="points"/><g class="text"/></g></g></g></g><g class="zerolinelayer-above"/><path class="xlines-above crisp" d="M0,0" style="fill: none;"/><path class="ylines-above crisp" d="M0,0" style="fill: none;"/><g class="overlines-above"/><g class="xaxislayer-above"><g class="xtick"><text text-anchor="middle" x="0" y="433" transform="translate(136.96,0)" style="font-family: 'Open Sans', verdana, arial, sans-serif; font-size: 12px; fill: rgb(42, 63, 95); fill-opacity: 1; white-space: pre;">−150</text></g><g class="xtick"><text text-anchor="middle" x="0" y="433" style="font-family: 'Open Sans', verdana, arial, sans-serif; font-size: 12px; fill: rgb(42, 63, 95); fill-opacity: 1; white-space: pre;" transform="translate(231.89,0)">−100</text></g><g class="xtick"><text text-anchor="middle" x="0" y="433" style="font-family: 'Open Sans', verdana, arial, sans-serif; font-size: 12px; fill: rgb(42, 63, 95); fill-opacity: 1; white-space: pre;" transform="translate(326.82,0)">−50</text></g><g class="xtick"><text text-anchor="middle" x="0" y="433" style="font-family: 'Open Sans', verdana, arial, sans-serif; font-size: 12px; fill: rgb(42, 63, 95); fill-opacity: 1; white-space: pre;" transform="translate(421.75,0)">0</text></g><g class="xtick"><text text-anchor="middle" x="0" y="433" style="font-family: 'Open Sans', verdana, arial, sans-serif; font-size: 12px; fill: rgb(42, 63, 95); fill-opacity: 1; white-space: pre;" transform="translate(516.6800000000001,0)">50</text></g><g class="xtick"><text text-anchor="middle" x="0" y="433" style="font-family: 'Open Sans', verdana, arial, sans-serif; font-size: 12px; fill: rgb(42, 63, 95); fill-opacity: 1; white-space: pre;" transform="translate(611.61,0)">100</text></g><g class="xtick"><text text-anchor="middle" x="0" y="433" style="font-family: 'Open Sans', verdana, arial, sans-serif; font-size: 12px; fill: rgb(42, 63, 95); fill-opacity: 1; white-space: pre;" transform="translate(706.54,0)">150</text></g></g><g class="yaxislayer-above"><g class="ytick"><text text-anchor="end" x="79" y="4.199999999999999" transform="translate(0,376.21)" style="font-family: 'Open Sans', verdana, arial, sans-serif; font-size: 12px; fill: rgb(42, 63, 95); fill-opacity: 1; white-space: pre;">2</text></g><g class="ytick"><text text-anchor="end" x="79" y="4.199999999999999" style="font-family: 'Open Sans', verdana, arial, sans-serif; font-size: 12px; fill: rgb(42, 63, 95); fill-opacity: 1; white-space: pre;" transform="translate(0,330.09000000000003)">4</text></g><g class="ytick"><text text-anchor="end" x="79" y="4.199999999999999" style="font-family: 'Open Sans', verdana, arial, sans-serif; font-size: 12px; fill: rgb(42, 63, 95); fill-opacity: 1; white-space: pre;" transform="translate(0,283.97)">6</text></g><g class="ytick"><text text-anchor="end" x="79" y="4.199999999999999" style="font-family: 'Open Sans', verdana, arial, sans-serif; font-size: 12px; fill: rgb(42, 63, 95); fill-opacity: 1; white-space: pre;" transform="translate(0,237.86)">8</text></g><g class="ytick"><text text-anchor="end" x="79" y="4.199999999999999" style="font-family: 'Open Sans', verdana, arial, sans-serif; font-size: 12px; fill: rgb(42, 63, 95); fill-opacity: 1; white-space: pre;" transform="translate(0,191.74)">10</text></g><g class="ytick"><text text-anchor="end" x="79" y="4.199999999999999" style="font-family: 'Open Sans', verdana, arial, sans-serif; font-size: 12px; fill: rgb(42, 63, 95); fill-opacity: 1; white-space: pre;" transform="translate(0,145.63)">12</text></g></g><g class="overaxes-above"/></g></g><g class="polarlayer"/><g class="smithlayer"/><g class="ternarylayer"/><g class="geolayer"/><g class="funnelarealayer"/><g class="pielayer"/><g class="iciclelayer"/><g class="treemaplayer"/><g class="sunburstlayer"/><g class="glimages"/><defs id="topdefs-f41d6b"><g class="clips"/><clipPath id="legendf41d6b"><rect width="121" height="145" x="0" y="0"/></clipPath></defs><g class="layer-above"><g class="imagelayer"/><g class="shapelayer"/></g><g class="infolayer"><g class="legend" pointer-events="all" transform="translate(767.48,100)"><rect class="bg" shape-rendering="crispEdges" style="stroke: rgb(68, 68, 68); stroke-opacity: 1; fill: rgb(255, 255, 255); fill-opacity: 1; stroke-width: 0px;" width="121" height="145" x="0" y="0"/><g class="scrollbox" transform="" clip-path="url(#legendf41d6b)"><g class="groups" transform=""><g class="traces" transform="translate(0,14.5)" style="opacity: 1;"><text class="legendtext" text-anchor="start" x="40" y="4.680000000000001" style="font-family: 'Open Sans', verdana, arial, sans-serif; font-size: 12px; fill: rgb(42, 63, 95); fill-opacity: 1; white-space: pre;">cell_carpet</text><g class="layers" style="opacity: 1;"><g class="legendfill"/><g class="legendlines"><path class="js-line" d="M5,0h30" style="fill: none; stroke: rgb(47, 79, 79); stroke-opacity: 1; stroke-width: 2px;"/></g><g class="legendsymbols"><g class="legendpoints"/></g></g><rect class="legendtoggle" x="0" y="-9.5" width="115.37890625" height="19" style="fill: rgb(0, 0, 0); fill-opacity: 0;"/></g></g><g class="groups" transform="translate(0,10)"><g class="traces" transform="translate(0,33.5)" style="opacity: 1;"><text class="legendtext" text-anchor="start" x="40" y="4.680000000000001" style="font-family: 'Open Sans', verdana, arial, sans-serif; font-size: 12px; fill: rgb(42, 63, 95); fill-opacity: 1; white-space: pre;">grass</text><g class="layers" style="opacity: 1;"><g class="legendfill"/><g class="legendlines"><path class="js-line" d="M5,0h30" style="fill: none; stroke: rgb(0, 128, 0); stroke-opacity: 1; stroke-width: 2px;"/></g><g class="legendsymbols"><g class="legendpoints"/></g></g><rect class="legendtoggle" x="0" y="-9.5" width="115.37890625" height="19" style="fill: rgb(0, 0, 0); fill-opacity: 0;"/></g></g><g class="groups" transform="translate(0,20)"><g class="traces" transform="translate(0,52.5)" style="opacity: 1;"><text class="legendtext" text-anchor="start" x="40" y="4.680000000000001" style="font-family: 'Open Sans', verdana, arial, sans-serif; font-size: 12px; fill: rgb(42, 63, 95); fill-opacity: 1; white-space: pre;">linoleum</text><g class="layers" style="opacity: 1;"><g class="legendfill"/><g class="legendlines"><path class="js-line" d="M5,0h30" style="fill: none; stroke: rgb(112, 128, 144); stroke-opacity: 1; stroke-width: 2px;"/></g><g class="legendsymbols"><g class="legendpoints"/></g></g><rect class="legendtoggle" x="0" y="-9.5" width="115.37890625" height="19" style="fill: rgb(0, 0, 0); fill-opacity: 0;"/></g></g><g class="groups" transform="translate(0,30)"><g class="traces" transform="translate(0,71.5)" style="opacity: 1;"><text class="legendtext" text-anchor="start" x="40" y="4.680000000000001" style="font-family: 'Open Sans', verdana, arial, sans-serif; font-size: 12px; fill: rgb(42, 63, 95); fill-opacity: 1; white-space: pre;">rubber_carpet</text><g class="layers" style="opacity: 1;"><g class="legendfill"/><g class="legendlines"><path class="js-line" d="M5,0h30" style="fill: none; stroke: rgb(139, 69, 19); stroke-opacity: 1; stroke-width: 2px;"/></g><g class="legendsymbols"><g class="legendpoints"/></g></g><rect class="legendtoggle" x="0" y="-9.5" width="115.37890625" height="19" style="fill: rgb(0, 0, 0); fill-opacity: 0;"/></g></g><g class="groups" transform="translate(0,40)"><g class="traces" transform="translate(0,90.5)" style="opacity: 1;"><text class="legendtext" text-anchor="start" x="40" y="4.680000000000001" style="font-family: 'Open Sans', verdana, arial, sans-serif; font-size: 12px; fill: rgb(42, 63, 95); fill-opacity: 1; white-space: pre;">DCT</text><g class="layers" style="opacity: 1;"><g class="legendfill"/><g class="legendlines"><path class="js-line" d="M5,0h30" style="fill: none; stroke: rgb(255, 0, 0); stroke-opacity: 1; stroke-dasharray: 3px, 3px; stroke-width: 3px;"/></g><g class="legendsymbols"><g class="legendpoints"/></g></g><rect class="legendtoggle" x="0" y="-9.5" width="115.37890625" height="19" style="fill: rgb(0, 0, 0); fill-opacity: 0;"/></g></g></g><rect class="scrollbar" rx="20" ry="3" width="0" height="0" style="fill: rgb(128, 139, 164); fill-opacity: 1;" x="0" y="0"/></g><g class="g-gtitle"/><g class="g-xtitle"><text class="xtitle" x="417" y="460.3" text-anchor="middle" style="opacity: 1; font-family: 'Open Sans', verdana, arial, sans-serif; font-size: 14px; fill: rgb(42, 63, 95); fill-opacity: 1; white-space: pre;">Угол движения, °</text></g><g class="g-ytitle"><text class="ytitle" transform="rotate(-90,46.240625,260)" x="46.240625" y="260" text-anchor="middle" style="opacity: 1; font-family: 'Open Sans', verdana, arial, sans-serif; font-size: 14px; fill: rgb(42, 63, 95); fill-opacity: 1; white-space: pre;">Суммарный ток по модулю, A</text></g></g></svg>